<svg width="169" height="169" viewBox="0 0 169 169" fill="none" xmlns="http://www.w3.org/2000/svg">
<path opacity="0.6" d="M84.5 0L85.5591 76.1166L105.514 2.65472L87.6106 76.6434L125.208 10.4521L89.4668 77.6638L142.344 22.9021L91.0108 79.1138L155.846 39.2226L92.1458 80.9022L164.864 58.3881L92.8003 82.9166L168.833 79.1942L92.9333 85.0306L167.503 100.334L92.5364 87.1112L160.958 120.478L91.6346 89.0277L149.608 138.362L90.2844 90.6598L134.168 152.862L88.5708 91.9048L115.607 163.066L86.6014 92.6845L95.0907 168.334L84.5 92.95L73.9093 168.334L82.3986 92.6845L53.3935 163.066L80.4292 91.9048L34.8321 152.862L78.7156 90.6598L19.3916 138.362L77.3654 89.0277L8.04211 120.478L76.4636 87.1112L1.49673 100.334L76.0667 85.0306L0.16674 79.1942L76.1997 82.9166L4.13573 58.3881L76.8542 80.9022L13.1543 39.2226L77.9892 79.1138L26.6558 22.9021L79.5332 77.6638L43.7918 10.4521L81.3894 76.6434L63.4857 2.65472L83.4409 76.1166L84.5 0Z" fill="#566265"/>
</svg>
